<svg xmlns="http://www.w3.org/2000/svg" width="470" height="470" viewBox="0 0 469.9 469.9"><path d="M429.3 44.6c-3.3-5.8-8.5-8.9-14.7-8.9 -3.5 0-7 1-9.9 2.8 -2 1-3.8 2.2-5.3 3.7 -92.6 92.6-171.4 169.4-254.3 242.8l-43.5-52.8c-4.2-5.1-8.9-6.2-12.1-6.2 -3.8 0-7.8 1.6-10.8 4.2l-0.7 0.4c-23.6 15.2-45.6 27.9-67.4 38.9 -5.8 2.9-9.2 8-9.3 13.9 -2.7 6.6-1.1 13.5 4.3 18.7 19.5 18.6 37.6 39.2 55.1 59.1 19.1 21.8 38.9 44.3 60.7 64.4 0.8 0.7 1.6 1.4 2.6 2 3.2 4.3 7.8 6.8 12.5 6.8 3.4 0 6.6-1.2 9.8-3.6 60.7-45.8 114.9-97.5 155.3-137.4 11.9-11.7 23.8-23.4 35.7-35.1 41.8-41 84.9-83.5 125.8-126.5 2.2-2.3 3.8-5.1 4.5-8.1 3.6-5.5 3.4-12.1-0.5-17.9C452.8 84.3 440.5 64.4 429.3 44.6zM429.1 114.1c-30.1 31.4-61.6 62.5-92.1 92.5 -16.1 15.9-32.2 31.7-48.1 47.7 -45.6 45.6-95.3 93.7-150.7 136.8 -18.1-17.7-35.1-37-51.6-55.7 -12.9-14.6-26.1-29.6-39.9-43.9 12.4-6.8 25.1-14.2 38.4-22.5l45.1 54.8c4.2 5.1 8.9 6.2 12.2 6.2 4.1 0 8.2-1.7 11.6-4.9 1.2-0.7 2.3-1.5 3.3-2.3 88.6-77.6 173.7-160.9 252.5-239.6C415.4 92.8 421.8 102.9 429.1 114.1z"/></svg>
