<svg xmlns="http://www.w3.org/2000/svg" width="479" height="479" viewBox="0 0 479 479"><path d="M13.6 467.5c1.7 6.5 7.7 12.5 16.1 11.3 53.3-7.5 105.5-19.6 157.6-33.1 2.4-0.6 4.3-1.8 5.8-3.1 3.2-0.6 6-2.7 7.9-5.5 1-0.6 2-1.3 3-2.3 73.5-75.4 152.2-145.6 225.7-221 5.9-6.1 4.3-13.7-0.2-18.4 -0.6-1-1.3-1.9-2.2-2.8 -1.3-1.3-2.7-2.7-4.1-4 14.7-15.3 28.4-31.5 41.9-48 4.7-5.7 3.8-12.4 0.5-17.2 -0.5-1.1-1.2-2.2-2.1-3.3 -35.9-41.9-74.8-80.6-116.6-116.6 -6.4-5.5-14.3-3.7-19.1 0.9 -1 0.6-2 1.3-3 2.3 -15.3 15.3-30.7 30.3-47.3 44.1 -0.2 0.1-0.3 0.3-0.4 0.4 -1.6-1.3-3.1-2.7-4.7-4 -9.4-7.9-21.9-0.3-23.2 8.6C172 126.9 98.5 202 23.2 275.2c-0.9 0.8-1.5 1.7-2.1 2.6 -1.5 1.6-2.6 3.7-3 6.6 -7.7 59.8-9.8 119.7-5.2 179.9C13.1 465.5 13.3 466.5 13.6 467.5zM39 450.4c-0.6-9.9-1-19.8-1.2-29.7 9.6 8.1 18.9 16.5 28 25.1C56.8 447.4 47.9 449 39 450.4zM338.2 31.2c35.5 31.3 68.8 64.7 99.9 100.4 -10.8 13.1-22 25.9-33.7 38.1 -34.8-34.5-69.9-68.6-106.7-100.9C311.8 56.9 325.1 44.1 338.2 31.2zM266.1 76.7c5.9 5 11.7 10.1 17.5 15.3 -39.2 38.9-79.2 77-115.5 118.7 -11.3 12.9 7.6 31.9 18.9 18.9 36.6-42 76.9-80.5 116.5-119.7 5.2 4.7 10.3 9.6 15.4 14.3 -58.8 56.1-110.9 118.6-167.3 177 -12 12.4 6.9 31.3 18.9 18.9 56.6-58.6 108.8-121.3 167.9-177.5 7.5 7.2 15 14.5 22.4 21.8 -43.7 43.3-88.3 85.7-131.2 129.8 -12 12.4 6.9 31.3 18.9 18.9 43-44.2 87.6-86.6 131.4-130 7.2 7.1 14.3 14.2 21.5 21.3 -69.4 70.3-142.8 136.5-211.9 207.1 -51.3-36.3-97.4-78.5-138.3-126.1C122.6 215.6 192.7 144.4 266.1 76.7zM41.4 314.7c36.4 40.8 76.7 77.4 120.7 109.8 -21.4 5.4-42.9 10.4-64.4 15 -18.1-17.9-36.9-35.1-57.1-50.8 -1-0.8-2-1.4-3.1-1.8C37.7 362.8 39 338.7 41.4 314.7z"/></svg>
