<svg xmlns="http://www.w3.org/2000/svg" width="20" height="20" viewBox="0 0 471.4 471.4">
	<path d="M395.8 7.9c-1.7-1.2-3.7-2.1-6.2-2.6C259-20.3 112.6 49.5 43.4 161.8 10.5 215.3 3 280.6 27.4 338.7c13.8 32.9 37.2 64.1 64.9 86.6 40 32.5 92.4 42.9 142.4 45.4 50.1 2.5 106-1.2 146.7-34.3 22.6-18.4 36.5-42.7 44-70.6 8.9-33-5.3-68.4-17.1-98.6 -11.4-29.5-23.9-59.6-7.7-89.5 12.9-23.8 32-43.9 45.9-67.2C477.1 59.3 444.3 24.8 395.8 7.9zM424.5 79.2c-5.2 19.3-21.6 37-33.2 52.8 -29.3 39.9-39 73.5-23.2 121.9 18.1 55.2 46.1 107.5-5.2 154.8 -37.7 34.8-102.9 30.5-150 28.2 -1.7-0.1-3.1 0.1-4.5 0.4 -32.9-10.2-70.4-17.9-97.6-40 -24.7-20-44.5-49.7-55.7-79.3C35.4 266.7 49.8 213 78.8 168.4 139.5 75.1 270.4 16.1 380.1 37.4c1 0.6 2.2 1.1 3.4 1.5C402.9 45.2 431.3 53.9 424.5 79.2z"/><path d="M280.8 298c-19.9 4-35.3 20.9-45.9 37.2 -1.4 2.1-2.1 4.1-2.4 6.1 -0.7 1.2-1.3 2.5-1.7 4 -3.9 14.3-4.2 32.1 8.3 42.5 31.6 26.2 78.5-4.3 91.5-36 6-14.5 2-31.3-8.2-42.7C311.9 297.5 295.3 295.1 280.8 298zM301 342.5c-0.3 0.5-0.9 2.1-1.1 2.3 -0.7 1.3-1.5 2.5-2.4 3.7 -0.2 0.3-0.3 0.4-0.4 0.6 -0.2 0.1-0.5 0.4-1.1 1.2 -1.1 1.3-2.4 2.5-3.6 3.7 -4.1 4-8.9 7.1-13.8 9.9 -0.7 0.1-1.4 0.1-2.1 0.3 -4.9 1.1-6.4 1.4-11.6 1.4 -0.8 0-1.6-0.1-2.3-0.1 -0.2 0-0.3-0.1-0.6-0.1 -0.3-0.1-0.7-0.2-1-0.3 -0.1-0.1-0.8-0.3-1.3-0.6 -0.1-0.2-0.1-0.4-0.2-0.6 0.4 1.1-0.2-3.1-0.1-3.9 0.1-1.5 0.5-3.3 1.4-6.4 0.2-0.6 0.2-1.2 0.3-1.9 0.2-0.3 0.5-0.6 0.7-0.9 3.8-5.8 8-10.9 13.2-15.6 1.4-1.2 3.4-2.7 6.2-4.3 0.9-0.5 1.9-1 2.9-1.5 -0.1 0.1 2.3-0.8 2.5-0.9 0.8-0.3 1.7-0.4 2.6-0.6 0.6-0.1 1.6-0.3 2-0.3 0.9-0.1 1.7 0 2.6 0.1 0.4 0 0.9 0.1 1.2 0.2 0.6 0.1 1.2 0.4 1.8 0.6 0.5 0.2 1 0.4 1.4 0.6 0.2 0.1 0.7 0.4 1.1 0.7 0.5 0.4 0.9 0.8 1.4 1.3 0 0 0 0 0 0 0.4 0.6 0.8 1.1 1.1 1.7 0 0.1 0.1 0.1 0.1 0.1 0.2 0.5 0.3 1 0.4 1.5 -0.2-0.4 0 1.9 0.1 3.7C302 338.3 301.5 340.8 301 342.5z"/><path d="M123.7 294.7c-5.2 0.2-9.8 3.1-12.1 7.5 -4.1 0.7-8.2 1.8-11.9 3.2 -7 2.5-11.6 9.2-9.5 16.8 1.6 5.8 7.8 10.6 13.9 10.1 1.4 4.7 3.1 9.4 5.5 13.7 3.2 5.9 8.3 11.3 14.9 13 9.3 2.5 17.5-2.6 22.1-10.2 3.7-0.7 7.2-3 9.4-6.4 7.6-11.7 11.6-25.8 2.2-37.6C150.3 295.1 135.1 294.3 123.7 294.7z"/><path d="M110.5 260.4c1.6 3.4 4.7 6.2 8.5 7.5 13.2 4.5 27.9 4.9 37-7.2 7.5-10 4.6-24.9 1.3-35.8 -1.5-5-5.5-8.8-10.3-9.9 -1.7-3.8-3.8-7.5-6-10.8 -4.2-6.1-11.8-9-18.6-5.1 -5.3 3-8.3 10.1-6.3 16 -4.2 2.5-8.3 5.4-11.9 8.7 -4.9 4.5-8.9 10.8-8.9 17.7C95 251.1 102 257.8 110.5 260.4z"/><path d="M210.2 153.5c1-4.8 1.7-9.7 1.8-14.7 0-6.7-1.9-13.8-6.8-18.6 -7-6.6-16.6-6.1-24.3-1.6 -3.6-1.1-7.7-0.8-11.3 1.1 -12.2 6.6-22.6 17.1-19.9 32 2.2 12.3 15.1 20.3 25.4 25.4 4.7 2.3 10.1 2 14.2-0.8 3.9 1.4 8 2.3 12 2.9 7.3 1.1 14.6-2.5 16.4-10.2C219 163.1 215.9 156 210.2 153.5z"/><path d="M268.4 115.1c1.3 7.3 7 13 14.8 12.3 6-0.6 11.8-5.8 12.4-11.9 4.9-0.6 9.8-1.4 14.5-3 6.3-2.1 12.5-6.2 15.5-12.4 4.1-8.7 0.5-17.7-6.1-23.5 -0.1-3.8-1.7-7.6-4.7-10.4 -10.2-9.5-23.3-16-36.6-8.8 -11 6-14.5 20.8-16 32.1 -0.7 5.2 1.4 10.2 5.3 13.2C267.3 106.9 267.7 111.1 268.4 115.1z"/>
</svg>